HIERARCHY
ROOT Hips
{
	OFFSET -1.049083 105.443504 -1.111724
	CHANNELS 6 Xposition Yposition Zposition Xrotation Yrotation Zrotation
	JOINT Chest
	{
		OFFSET 0.071963 13.589531 1.213992
		CHANNELS 3 Xrotation Yrotation Zrotation
		JOINT Chest2
		{
			OFFSET -0.980020 21.287933 2.220275
			CHANNELS 3 Xrotation Yrotation Zrotation
			JOINT Chest3
			{
				OFFSET -0.543031 14.878296 -1.077647
				CHANNELS 3 Xrotation Yrotation Zrotation
				JOINT Neck
				{
					OFFSET 0.346558 17.228836 1.289606
					CHANNELS 3 Xrotation Yrotation Zrotation
					JOINT Head
					{
						OFFSET -0.276058 10.343903 1.659833
						CHANNELS 3 Xrotation Yrotation Zrotation
						End Site
						{
							OFFSET -0.271998 10.355316 1.587761
						}
					}
				}
				JOINT LeftCollar
				{
					OFFSET 4.591397 12.930206 3.678733
					CHANNELS 3 Xrotation Yrotation Zrotation
					JOINT LeftUpArm
					{
						OFFSET 14.109012 -5.698212 -8.772995
						CHANNELS 3 Xrotation Yrotation Zrotation
						JOINT LeftLowArm
						{
							OFFSET 4.478054 -33.461456 0.078380
							CHANNELS 3 Xrotation Yrotation Zrotation
							JOINT LeftHand
							{
								OFFSET -0.776733 -28.053696 10.645842
								CHANNELS 3 Xrotation Yrotation Zrotation
								End Site
								{
									OFFSET -0.169756 -6.131302 2.326709
								}
							}
						}
					}
				}
				JOINT RightCollar
				{
					OFFSET -3.815987 13.071991 4.045995
					CHANNELS 3 Xrotation Yrotation Zrotation
					JOINT RightUpArm
					{
						OFFSET -14.588136 -5.737213 -7.922565
						CHANNELS 3 Xrotation Yrotation Zrotation
						JOINT RightLowArm
						{
							OFFSET -5.786297 -33.256104 -0.534107
							CHANNELS 3 Xrotation Yrotation Zrotation
							JOINT RightHand
							{
								OFFSET 2.692032 -27.787186 11.026346
								CHANNELS 3 Xrotation Yrotation Zrotation
								End Site
								{
									OFFSET 0.588360 -6.073166 2.409916
								}
							}
						}
					}
				}
			}
		}
	}
	JOINT LeftUpLeg
	{
		OFFSET 10.017344 -0.076225 0.257140
		CHANNELS 3 Xrotation Yrotation Zrotation
		JOINT LeftLowLeg
		{
			OFFSET 4.171787 -47.055931 -3.510537
			CHANNELS 3 Xrotation Yrotation Zrotation
			JOINT LeftFoot
			{
				OFFSET 0.994609 -42.886662 -12.661440
				CHANNELS 3 Xrotation Yrotation Zrotation
				JOINT LeftToe
				{
					OFFSET 0.068698 -16.158127 17.276268
					CHANNELS 3 Xrotation Yrotation Zrotation
					End Site
					{
						OFFSET 0.994385 -1.542774 23.583679
					}
				}
			}
		}
	}
	JOINT RightUpLeg
	{
		OFFSET -10.017350 0.076027 -0.257158
		CHANNELS 3 Xrotation Yrotation Zrotation
		JOINT RightLowLeg
		{
			OFFSET -0.714233 -47.339733 -1.565689
			CHANNELS 3 Xrotation Yrotation Zrotation
			JOINT RightFoot
			{
				OFFSET 1.944069 -42.245224 -14.565074
				CHANNELS 3 Xrotation Yrotation Zrotation
				JOINT RightToe
				{
					OFFSET -2.398308 -17.812109 15.379648
					CHANNELS 3 Xrotation Yrotation Zrotation
					End Site
					{
						OFFSET -5.591452 -3.978339 22.637680
					}
				}
			}
		}
	}
}
MOTION
Frames: 11
Frame Time: 0.033333
-5.571684 45.522518 -14.156913 163.578017 -56.825541 143.796683 -11.192512 3.096476 -9.472516 -2.994894 -4.410731 4.667359 -5.997158 -22.626614 -7.016865 -7.540617 -18.157506 12.523276 -0.000002 -0.000002 -0.000001 -7.428494 9.941478 17.416941 16.683727 31.012365 24.703691 38.588721 14.217782 -3.951021 -0.000001 0.000002 0.000001 -10.165915 -6.111526 -31.606506 -9.127480 -2.288240 -82.233927 32.367225 -24.083872 -17.314876 -0.000000 0.000002 -0.000001 33.311376 12.147653 32.363595 27.685205 -5.997088 -9.314505 41.567555 -26.094813 -10.810786 -0.000005 0.000002 -0.000001 -58.238134 14.035673 -20.029637 35.454699 14.647636 42.171470 1.396670 -12.519555 -1.095186 0.000002 0.000000 0.000000 
-5.534697 45.547523 -14.273913 163.406989 -59.233750 146.617251 -8.547328 3.617336 -12.884408 -2.706786 -5.311083 6.025794 -7.285035 -23.934730 -8.896222 -6.889528 -19.479997 13.520167 0.000005 -0.000001 -0.000001 -7.441934 7.592678 16.085963 13.425257 30.505308 28.131956 29.887439 16.878985 -0.290576 0.000003 0.000000 -0.000001 -11.065787 -6.376570 -31.649758 -11.133778 -0.808021 -80.380685 32.028191 -26.127669 -17.903423 0.000001 0.000001 0.000002 32.071577 11.206015 30.939698 29.989643 -6.153100 -6.925964 42.976452 -25.623842 -10.570965 -0.000001 -0.000001 0.000000 -70.541367 19.015301 -21.143756 34.578468 17.242111 58.733049 2.516934 -27.336413 -5.775817 -0.000001 0.000002 -0.000001 
-5.486916 45.561100 -14.373003 165.001142 -60.323807 149.244264 -6.867243 3.655644 -14.274195 -2.032247 -5.490301 6.534536 -7.161537 -23.620795 -8.686279 -5.722228 -20.334947 14.303786 -0.000000 0.000002 -0.000000 -7.351988 5.795699 17.476246 9.446328 26.909434 30.893967 23.590766 18.721718 4.096164 0.000003 -0.000001 0.000002 -11.560213 -6.939376 -31.360831 -12.107022 0.622360 -78.805329 32.072468 -26.876005 -17.618483 0.000000 0.000002 -0.000000 33.109089 10.961211 30.132845 30.605559 -5.608595 -4.780581 40.880277 -26.856572 -10.858695 -0.000001 -0.000000 0.000001 -79.876747 23.925427 -22.267672 35.754032 21.241041 71.866417 -4.548970 -33.901231 -11.169597 0.000003 -0.000000 -0.000000 
-5.459528 45.616119 -14.457581 166.296856 -60.412989 150.404973 -6.278674 3.551273 -14.638706 -1.515776 -6.234548 7.736759 -7.642951 -21.657521 -9.101518 -5.078968 -20.545165 14.165955 -0.000001 -0.000002 -0.000001 -7.691464 4.510237 20.712962 4.914574 22.966508 34.530609 20.128303 20.617425 7.494805 0.000002 -0.000001 0.000003 -12.386545 -7.368150 -31.727031 -13.626417 1.997955 -76.758697 30.780691 -28.271748 -18.611231 0.000000 0.000001 0.000003 33.660415 10.506412 29.178770 31.022873 -4.853055 -4.088665 38.531286 -26.995151 -11.050579 -0.000004 0.000001 0.000000 -86.432376 28.042648 -23.140304 35.027259 23.815451 84.162178 -10.595711 -40.811630 -17.204415 0.000001 0.000004 -0.000001 
-5.434140 45.676353 -14.534797 165.768172 -61.242604 150.830507 -5.560208 3.597179 -15.149886 -1.729525 -6.762739 8.368012 -8.307685 -22.261207 -10.244373 -4.956331 -20.538895 13.639376 0.000001 0.000002 0.000001 -8.593908 3.528703 22.548623 1.067265 20.489410 38.317221 18.366099 22.728727 9.493022 0.000003 -0.000001 0.000002 -12.705922 -6.116995 -30.604329 -15.400270 2.344834 -77.381658 29.784235 -29.215700 -18.681959 0.000001 -0.000001 -0.000001 33.146922 10.101343 28.396037 31.579093 -4.322490 -2.353263 37.440706 -27.822941 -11.268708 0.000000 -0.000000 0.000001 -90.464387 31.153439 -24.082045 34.589106 26.009820 92.799492 -16.055379 -44.881320 -22.312532 0.000001 0.000003 -0.000002 
-5.399953 45.705276 -14.642872 163.809834 -61.377036 150.716184 -6.416812 4.117371 -16.784235 -1.806205 -7.167831 8.856559 -7.586037 -24.178059 -10.323025 -5.237159 -20.374601 13.204694 -0.000000 0.000003 0.000000 -9.330723 3.291657 24.459744 -3.057007 16.004177 41.407858 20.651084 25.167203 10.724780 0.000003 0.000002 0.000001 -13.264749 -5.801035 -31.579168 -16.433360 3.123907 -76.725783 29.603874 -29.591945 -17.807113 0.000003 -0.000001 -0.000000 31.837841 9.223971 26.971160 32.409125 -4.400615 0.047781 34.788158 -27.886418 -11.599279 0.000001 -0.000001 -0.000003 -93.338346 33.223437 -24.469306 34.021726 27.536823 98.605522 -20.431288 -46.687929 -25.959374 0.000002 -0.000002 -0.000004 
-5.375602 45.747597 -14.767083 163.953555 -61.572243 150.547587 -6.583297 4.076520 -16.476911 -1.738317 -7.537021 9.483673 -7.450310 -24.375110 -10.535181 -6.189041 -19.560087 12.290157 0.000001 0.000001 0.000000 -9.313701 2.558442 26.717492 -6.050554 10.394005 44.709442 24.228655 25.919958 10.882220 0.000001 -0.000005 0.000001 -13.104079 -5.657245 -31.341682 -15.403620 3.818556 -77.600293 30.904079 -28.940437 -17.364532 -0.000001 -0.000001 0.000001 31.413563 8.802341 26.284443 32.973196 -4.139244 2.236519 33.214756 -28.105434 -11.625418 0.000000 -0.000001 -0.000002 -93.367306 33.566828 -24.706527 33.015188 27.511329 102.761774 -22.497340 -46.793080 -27.492939 0.000000 0.000002 0.000003 
-5.357755 45.778759 -14.902432 163.516587 -61.656172 150.148294 -6.950885 4.100199 -16.591805 -1.400438 -8.050270 10.367725 -7.717586 -24.113015 -10.942591 -7.669566 -19.053916 11.658067 0.000001 -0.000001 -0.000002 -9.247184 2.046579 28.609624 -8.021074 6.029860 47.463476 27.034147 26.150532 9.998483 0.000003 0.000001 -0.000002 -13.111111 -5.788859 -31.603176 -14.872788 4.279781 -78.064431 31.695349 -28.718227 -16.795295 0.000001 -0.000001 -0.000000 30.885784 8.171550 25.491943 33.618891 -3.873832 3.499189 32.022000 -27.715354 -11.482380 0.000001 -0.000001 -0.000003 -92.798474 34.170183 -25.401742 32.364407 27.166410 104.789343 -23.066937 -46.677701 -27.688424 0.000001 0.000002 -0.000000 
-5.340834 45.787495 -15.065690 162.734339 -61.755722 149.731721 -6.929599 3.915423 -15.959499 -2.463952 -7.432205 9.218542 -7.375038 -26.031345 -10.586988 -6.844953 -18.304840 11.340604 0.000001 0.000001 -0.000000 -9.668490 3.233764 31.747553 -10.427827 1.278790 50.164386 28.214333 26.452003 8.932862 0.000003 -0.000001 0.000003 -12.742905 -5.076766 -31.522655 -14.890885 4.561439 -78.650031 32.240948 -29.009347 -15.752322 0.000002 -0.000001 0.000000 30.278649 7.849692 25.129009 33.838424 -4.263586 4.266496 30.918101 -26.980594 -11.648932 0.000001 -0.000001 0.000001 -91.873134 34.925342 -26.476757 31.476865 26.511577 105.893689 -23.406999 -47.279030 -28.180394 0.000002 0.000000 -0.000001 
-5.327370 45.790138 -15.219867 162.679096 -61.517799 149.855074 -7.072431 3.871286 -15.518939 -2.098250 -7.388364 9.249624 -7.833678 -26.137346 -10.589538 -6.387196 -17.819347 11.122819 0.000001 0.000003 0.000000 -9.662008 3.139803 34.413601 -11.648908 -2.536767 54.888804 28.873884 26.256637 7.553380 0.000003 -0.000001 0.000002 -12.801458 -5.177972 -31.929809 -14.856858 4.649243 -79.146620 32.701184 -28.801897 -14.669027 0.000001 0.000001 -0.000000 30.607174 7.989944 25.557957 33.305403 -4.768607 4.118210 32.145305 -26.165452 -11.405410 -0.000001 -0.000001 -0.000003 -91.708260 35.327343 -26.857892 31.250554 26.631225 105.992084 -23.269217 -46.653710 -27.687920 0.000001 0.000006 -0.000002 
-5.318422 45.774948 -15.375214 161.235618 -61.616694 149.286953 -7.413183 3.989959 -15.714261 -1.551565 -7.516652 9.480736 -8.370589 -26.740901 -10.838654 -6.948311 -17.856474 10.869136 0.000003 0.000001 -0.000000 -10.008939 2.638148 35.900700 -12.788682 -5.016613 59.023285 29.000300 26.950475 6.297574 0.000005 0.000005 0.000004 -13.077892 -4.710034 -31.875974 -15.583995 4.341609 -79.777368 32.560943 -29.424817 -13.932201 0.000001 -0.000001 0.000001 29.992464 7.636703 25.323768 33.283928 -4.996216 4.371087 32.473093 -26.878166 -11.580482 0.000002 -0.000000 0.000000 -91.668638 36.317656 -27.722657 30.896480 26.364457 106.224550 -23.895900 -46.314642 -27.768363 0.000001 0.000005 0.000001 
